<svg width="500" height="500" viewBox="0 0 500 500" fill="none" xmlns="http://www.w3.org/2000/svg">
<rect width="500" height="500" rx="250" fill="#181622"/>
<path d="M101.252 340V158.182H174.05C187.426 158.182 198.583 160.165 207.52 164.13C216.457 168.095 223.174 173.6 227.672 180.643C232.17 187.627 234.419 195.676 234.419 204.79C234.419 211.893 232.999 218.137 230.158 223.523C227.317 228.849 223.411 233.229 218.439 236.662C213.527 240.036 207.904 242.433 201.571 243.853V245.629C208.496 245.924 214.977 247.878 221.014 251.488C227.11 255.098 232.052 260.159 235.84 266.669C239.628 273.12 241.522 280.814 241.522 289.751C241.522 299.399 239.125 308.01 234.331 315.586C229.596 323.103 222.582 329.051 213.29 333.43C203.998 337.81 192.546 340 178.933 340H101.252ZM139.693 308.572H171.032C181.744 308.572 189.557 306.531 194.469 302.447C199.382 298.304 201.838 292.799 201.838 285.934C201.838 280.903 200.624 276.464 198.198 272.617C195.771 268.77 192.309 265.752 187.811 263.562C183.372 261.372 178.075 260.277 171.919 260.277H139.693V308.572ZM139.693 234.265H168.191C173.458 234.265 178.134 233.348 182.218 231.513C186.361 229.619 189.616 226.955 191.983 223.523C194.41 220.09 195.623 215.977 195.623 211.183C195.623 204.613 193.285 199.316 188.61 195.291C183.993 191.267 177.424 189.254 168.901 189.254H139.693V234.265ZM365.168 210.472C364.458 203.311 361.41 197.747 356.024 193.782C350.638 189.817 343.328 187.834 334.095 187.834C327.822 187.834 322.525 188.722 318.204 190.497C313.883 192.214 310.569 194.611 308.261 197.688C306.012 200.766 304.887 204.258 304.887 208.164C304.769 211.419 305.45 214.26 306.929 216.687C308.468 219.113 310.569 221.214 313.232 222.99C315.896 224.706 318.973 226.216 322.465 227.518C325.957 228.761 329.686 229.826 333.651 230.714L349.987 234.62C357.918 236.396 365.197 238.763 371.826 241.722C378.455 244.682 384.196 248.321 389.049 252.642C393.902 256.963 397.661 262.053 400.324 267.912C403.047 273.771 404.437 280.489 404.497 288.065C404.437 299.192 401.597 308.839 395.974 317.006C390.41 325.115 382.361 331.418 371.826 335.916C361.35 340.355 348.714 342.575 333.918 342.575C319.24 342.575 306.456 340.326 295.566 335.827C284.735 331.329 276.271 324.671 270.175 315.852C264.138 306.974 260.972 295.996 260.676 282.915H297.874C298.288 289.012 300.034 294.102 303.112 298.185C306.249 302.21 310.421 305.258 315.629 307.33C320.897 309.342 326.845 310.348 333.474 310.348C339.984 310.348 345.637 309.401 350.431 307.507C355.284 305.613 359.042 302.979 361.705 299.606C364.369 296.232 365.7 292.356 365.7 287.976C365.7 283.892 364.487 280.459 362.061 277.678C359.693 274.896 356.201 272.528 351.585 270.575C347.027 268.622 341.434 266.847 334.806 265.249L315.008 260.277C299.679 256.548 287.575 250.719 278.698 242.788C269.82 234.857 265.41 224.174 265.47 210.739C265.41 199.73 268.34 190.112 274.259 181.886C280.236 173.659 288.434 167.237 298.85 162.621C309.267 158.004 321.104 155.696 334.362 155.696C347.856 155.696 359.634 158.004 369.695 162.621C379.816 167.237 387.688 173.659 393.311 181.886C398.933 190.112 401.833 199.641 402.011 210.472H365.168Z" fill="white"/>
</svg>
